<svg xmlns="http://www.w3.org/2000/svg" width="50" height="50" style="background:#f2f2f2" viewBox="0 0 50 50">
  <g fill="none" fill-rule="evenodd">
    <circle cx="25" cy="25" r="24.5" fill="#FFF"/>
    <path fill="#333" d="M15.6,14.72 C15.1139894,14.72 14.72,15.1139894 14.72,15.6 L14.72,34.4 C14.72,34.8860106 15.1139894,35.28 15.6,35.28 L34.4,35.28 C34.8860106,35.28 35.28,34.8860106 35.28,34.4 L35.28,15.6 C35.28,15.1139894 34.8860106,14.72 34.4,14.72 L15.6,14.72 Z M15.6,14 L34.4,14 C35.2836556,14 36,14.7163444 36,15.6 L36,34.4 C36,35.2836556 35.2836556,36 34.4,36 L15.6,36 C14.7163444,36 14,35.2836556 14,34.4 L14,15.6 C14,14.7163444 14.7163444,14 15.6,14 Z M29.2329979,22.3672677 C29.2329979,23.7455741 28.7627045,24.8056745 27.8221034,25.5476008 C26.8815024,26.289527 25.5358112,26.6604845 23.7849895,26.6604845 L22.1831819,26.6604845 L22.1831819,32.0153646 L20.6,32.0153646 L20.6,18.4 L24.1295644,18.4 C27.5318704,18.4 29.2329979,19.7224093 29.2329979,22.3672677 Z M22.1831819,25.3008106 L23.6080457,25.3008106 C25.0111865,25.3008106 26.0262753,25.0742006 26.6533427,24.6209737 C27.28041,24.1677468 27.593939,23.4413529 27.593939,22.4417703 C27.593939,21.5415251 27.2990355,20.8710077 26.7092197,20.430198 C26.1194039,19.9893883 25.2005467,19.7689867 23.9526206,19.7689867 L22.1831819,19.7689867 L22.1831819,25.3008106 Z"/>
  </g>
</svg>
